<svg id="Logo_Oba_Pet" data-name="Logo Oba Pet" xmlns="http://www.w3.org/2000/svg" width="109.463" height="29.364" viewBox="0 0 109.463 29.364">
  <g id="Laranja">
    <path id="O" d="M32.477,21A11.477,11.477,0,1,1,21,32.477,11.477,11.477,0,0,1,32.477,21Zm0,4.317a7.16,7.16,0,1,1-7.16,7.16,7.16,7.16,0,0,1,7.16-7.16Z" transform="translate(-21 -21)" fill="#e06e31" fill-rule="evenodd"/>
    <path id="b" d="M264,43.954s8.141-.266,8.141-8.318-8.615-8.052-8.615-8.052a2.173,2.173,0,0,0-1.809,2.29,1.858,1.858,0,0,0,1.809,2.053s4.3-.164,4.3,3.709A3.76,3.76,0,0,1,264,39.508s-4-.164-4-3.872V22.556S260,21,257.84,21s-2.159,1.556-2.159,1.556v13.08S255.707,43.954,264,43.954Z" transform="translate(-230.971 -21)" fill="#e06e31" fill-rule="evenodd"/>
    <path id="a" d="M444.253,90.843s-.246-7.315-8.318-7.315-8.072,8.052-8.072,8.052a7.535,7.535,0,0,0,1.9,5.428c1.6-.767,1.474-1.532,1.474-1.532s.6-5.9,4.7-5.9c.687-.572,1.83-1.579,1.83-1.579l-.211.842.842-.632s-.617,1.516-.316,1.685a2.02,2.02,0,0,1,1.053,1.053v.842s.361.632.842.632v.316s-.629,1.474-1.053,1.474h-1.158s-1.044-.06-.632.737c.357.69.948,1.448.948,4.738a5.421,5.421,0,0,0,1.79-.948h.316a1.78,1.78,0,0,0,1.9,1.158,2.4,2.4,0,0,0,2.171-1.474Z" transform="translate(-385.013 -76.944)" fill="#e06e31" fill-rule="evenodd"/>
  </g>
  <g id="Roxo" transform="translate(61.065 2.749)">
    <path id="p" d="M600.952,104.267a2.045,2.045,0,0,0,2.176,2,2,2,0,0,0,2.141-2v-8.2l-.837-.105V94.484l.837.211s-.134-3.613.742-4.949a2.7,2.7,0,0,0-.421-.737l.105-3.159s1.79,1.8,1.79,2.948h1.579s1.116-.171,2.527,1.9c.411.039,2.419.263,3.791.421,0,.158.221,4-2.738,4H609.7s-.261.16,0,.421c.623.2-.211,1.264-.211,1.264s-.666-.559-.421.211.632,2.843.632,2.843,7.681-.732,7.681-8.318c0-8.544-8.208-8.052-8.208-8.052s-8.218-.477-8.218,8.052Z" transform="translate(-600.952 -79.649)" fill="#8c337d" fill-rule="evenodd"/>
    <path id="e" d="M771.848,91.58S771.774,99.9,780.6,99.9h3.09a2.161,2.161,0,0,0,1.474-2.316c0-1.982-1.474-2-1.474-2h-4.248s-3.148-.084-3.148-4,4.412-3.685,4.412-3.685.167.254,0,.421-4.313,2.741-2.211,4.843a2.248,2.248,0,0,0,3.475-.211l4.7-4.528s.224-1.119,0-1.369-1.44-3.524-6.7-3.524C771.872,83.528,771.848,91.58,771.848,91.58Z" transform="translate(-753.854 -79.694)" fill="#8c337d" fill-rule="evenodd"/>
    <path id="t" d="M929.434,50.945V59s-.748,8.255,7,8.213c8.108-.044,6.686-8.213,6.686-8.213a2.314,2.314,0,0,0-2.027-1.068A2.342,2.342,0,0,0,939.058,59s.063,4-2.622,4c-3.054,0-2.685-4-2.685-4v-3.58H941.1s2.132.312,2.132-2.2-2.132-2.273-2.132-2.273h-7.344V48.889s.146-1.778-2.132-1.778-2.185,1.778-2.185,1.778Z" transform="translate(-894.829 -47.111)" fill="#8c337d" fill-rule="evenodd"/>
  </g>
</svg>
